<svg xmlns="http://www.w3.org/2000/svg" xmlns:xlink="http://www.w3.org/1999/xlink" width="375" height="321" viewBox="0 0 375 321">
  <defs>
    <clipPath id="clip-path">
      <rect id="Rectangle_2163" data-name="Rectangle 2163" width="375" height="321" transform="translate(0 491)" fill="#fff" stroke="#707070" stroke-width="1"/>
    </clipPath>
    <linearGradient id="linear-gradient" x1="0.5" x2="0.5" y2="0.907" gradientUnits="objectBoundingBox">
      <stop offset="0" stop-color="#19a2b8"/>
      <stop offset="1" stop-color="#19a2b8" stop-opacity="0"/>
    </linearGradient>
  </defs>
  <g id="Graph_Artwork" data-name="Graph Artwork" transform="translate(0 -491)" clip-path="url(#clip-path)">
    <g id="Group_16151" data-name="Group 16151">
      <g id="Group_16150" data-name="Group 16150" transform="translate(473.525 318.584)" opacity="0.489">
        <g id="Group_16148" data-name="Group 16148" transform="translate(-481.772 191.526)" opacity="0.3">
          <line id="Line_3" data-name="Line 3" y2="369.021" fill="none" stroke="#000" stroke-width="1" stroke-dasharray="2 4"/>
          <line id="Line_3-2" data-name="Line 3" y2="369.021" transform="translate(102.023)" fill="none" stroke="#000" stroke-width="1" stroke-dasharray="2 4"/>
          <line id="Line_3-3" data-name="Line 3" y2="369.021" transform="translate(203.323)" fill="none" stroke="#000" stroke-width="1" stroke-dasharray="2 4"/>
          <line id="Line_3-4" data-name="Line 3" y2="369.021" transform="translate(305.347)" fill="none" stroke="#000" stroke-width="1" stroke-dasharray="2 4"/>
          <line id="Line_3-5" data-name="Line 3" y2="369.021" transform="translate(406.646)" fill="none" stroke="#000" stroke-width="1" stroke-dasharray="2 4"/>
        </g>
        <g id="Group_16149" data-name="Group 16149" transform="translate(-563.525 231.209)" opacity="0.2">
          <line id="Line_4" data-name="Line 4" x1="552.084" transform="translate(0 0)" fill="none" stroke="#000" stroke-width="1" stroke-dasharray="2 4"/>
          <line id="Line_4-2" data-name="Line 4" x1="552.084" transform="translate(0 66.568)" fill="none" stroke="#000" stroke-width="1" stroke-dasharray="2 4"/>
          <line id="Line_4-3" data-name="Line 4" x1="552.084" transform="translate(0 133.86)" fill="none" stroke="#000" stroke-width="1" stroke-dasharray="2 4"/>
          <line id="Line_4-4" data-name="Line 4" x1="552.084" transform="translate(0 200.429)" fill="none" stroke="#000" stroke-width="1" stroke-dasharray="2 4"/>
          <line id="Line_4-5" data-name="Line 4" x1="552.084" transform="translate(0 266.997)" fill="none" stroke="#000" stroke-width="1" stroke-dasharray="2 4"/>
        </g>
      </g>
      <path id="Path_1412" data-name="Path 1412" d="M514,471.072l15.616-25.5h21.661l56.2-20.769V402.874L679.9,377.219l23.291,25.655,43.7,15.518,51.569-15.518,21.27-12.526,41.85-23.172,30.967,10.044L916.7,367.175,965,309.706" transform="translate(-583.002 242.859)" fill="none" stroke="#00a2b8" stroke-width="3"/>
      <path id="Path_1413" data-name="Path 1413" d="M514,471.072l15.616-25.5h21.661l56.2-20.769V402.874L679.9,377.219l23.291,25.655,43.7,15.518,51.569-15.518,21.27-12.526,41.85-23.172,30.967,10.044L916.7,367.175,965,309.706" transform="translate(-583.002 248.808)" fill="none" stroke="#5d7b9a" stroke-width="3" opacity="0.701"/>
      <path id="Path_1955" data-name="Path 1955" d="M.055,1.282,16.644-8.059,34,0V187H0Z" transform="translate(263.123 625)" fill="url(#linear-gradient)"/>
    </g>
  </g>
</svg>
