<svg xmlns="http://www.w3.org/2000/svg" width="100" height="100" viewBox="0 0 100 100">
  <g id="Group_16176" data-name="Group 16176" transform="translate(-88 -240)">
    <path id="Path_1954" data-name="Path 1954" d="M50,0c43.284,0,50,6.716,50,50s-6.716,50-50,50S0,93.284,0,50,6.716,0,50,0Z" transform="translate(88 240)" fill="#f4f5fa"/>
    <g id="Group_16175" data-name="Group 16175" transform="translate(106.5 260.5)">
      <g id="Group_16142" data-name="Group 16142">
        <path id="Path_32" data-name="Path 32" d="M3.306,23.345A6.176,6.176,0,0,0,7.844,25.78a4.236,4.236,0,0,0,3.894-2.322,10.889,10.889,0,0,0,.784-4.729,13.878,13.878,0,0,0-.868-5.38,3.641,3.641,0,0,0-3.39-2.067,6.312,6.312,0,0,0-4.931,2.634v9.43ZM0,9.073l2.97-.538a13.782,13.782,0,0,1,.2,2.86A7.133,7.133,0,0,1,8.629,8.648,6.248,6.248,0,0,1,13.56,10.97C14.933,12.7,15.6,14.991,15.6,18.333a11.393,11.393,0,0,1-1.485,6.457A6.573,6.573,0,0,1,8.4,28.216a7.2,7.2,0,0,1-5.1-2.18V38.042L.42,38.609V13.094A13.324,13.324,0,0,0,0,9.073Z" transform="translate(7.397 -1.2)" fill="#3c3d3e"/>
        <path id="Path_33" data-name="Path 33" d="M23.594,9.314l2.886-.793a6.858,6.858,0,0,1,.588,3.03,6.674,6.674,0,0,1,5.211-3.115,3.41,3.41,0,0,1,1.009.2l-1.177,3.2a2.319,2.319,0,0,0-.812-.142,4.3,4.3,0,0,0-3.082,1.359,3.324,3.324,0,0,0-1.065,2.973V27.749H24.238V13.307A9.446,9.446,0,0,0,23.594,9.314Z" transform="translate(1.551 -1.186)" fill="#3c3d3e"/>
        <path id="Path_34" data-name="Path 34" d="M76.021,9.115l3.026-.481V27.748H76.021V9.115Z" transform="translate(-75.545 -1.214)" fill="#3c3d3e"/>
        <path id="Path_36" data-name="Path 36" d="M77.506,0a2.032,2.032,0,0,1,2.045,2.067,2.045,2.045,0,1,1-4.09.028A2.056,2.056,0,0,1,77.506,0Z" transform="translate(-75.461)" fill="#5d7b9a"/>
        <path id="Path_40" data-name="Path 40" d="M44.85,10.876a4.193,4.193,0,0,0-3.782,2.039,10.583,10.583,0,0,0-.9,4.871A13.3,13.3,0,0,0,41.32,23.9a4.366,4.366,0,0,0,3.754,1.869,4.011,4.011,0,0,0,4.006-2.8,11.577,11.577,0,0,0,.56-4.078,13,13,0,0,0-.868-5.635A4.237,4.237,0,0,0,44.85,10.876Zm.028-2.407a7.316,7.316,0,0,1,6.36,3.257,11.95,11.95,0,0,1,1.709,6.938c0,6.23-3.306,9.543-7.957,9.543-5.1,0-7.985-3.795-7.985-9.94C37.006,12.178,40.031,8.469,44.878,8.469Z" transform="translate(-2.77 -1.191)" fill="#3c3d3e"/>
      </g>
      <g id="Group_16174" data-name="Group 16174" transform="translate(13.401 31.009)">
        <g id="Group_16143" data-name="Group 16143" transform="translate(0)">
          <path id="Path_1951" data-name="Path 1951" d="M0,0H49.394V19.3l-8.606,9.125H0Z" fill="#00a2b8"/>
        </g>
        <path id="Path_2183" data-name="Path 2183" d="M-101.039-86.221a.225.225,0,0,1-.068.166.225.225,0,0,1-.166.068h-4.071a.086.086,0,0,0-.1.1v3.078a.086.086,0,0,0,.1.1h2.337a.225.225,0,0,1,.166.068.225.225,0,0,1,.068.166v1.889a.225.225,0,0,1-.068.166.225.225,0,0,1-.166.068h-2.337a.086.086,0,0,0-.1.1v3.1a.086.086,0,0,0,.1.1h4.071a.225.225,0,0,1,.166.068.225.225,0,0,1,.068.166v1.889a.225.225,0,0,1-.068.166.225.225,0,0,1-.166.068h-6.681a.225.225,0,0,1-.166-.068.225.225,0,0,1-.068-.166V-88.11a.225.225,0,0,1,.068-.166.225.225,0,0,1,.166-.068h6.681a.225.225,0,0,1,.166.068.225.225,0,0,1,.068.166Zm1.617,11.512a.225.225,0,0,1-.166-.068.225.225,0,0,1-.068-.166V-88.11a.225.225,0,0,1,.068-.166.225.225,0,0,1,.166-.068H-95.9a3.926,3.926,0,0,1,2.844,1.032,3.638,3.638,0,0,1,1.071,2.746v6.077a3.638,3.638,0,0,1-1.071,2.746A3.926,3.926,0,0,1-95.9-74.71Zm2.513-2.454a.086.086,0,0,0,.1.1l.877-.019a1.089,1.089,0,0,0,.857-.448,1.887,1.887,0,0,0,.351-1.13V-84.39a1.866,1.866,0,0,0-.331-1.169,1.073,1.073,0,0,0-.9-.429h-.857a.086.086,0,0,0-.1.1Zm10.207,2.61a3.93,3.93,0,0,1-2.815-1,3.511,3.511,0,0,1-1.062-2.678v-6.584A3.511,3.511,0,0,1-89.518-87.5a3.93,3.93,0,0,1,2.815-1,3.942,3.942,0,0,1,2.824,1.013A3.526,3.526,0,0,1-82.808-84.8v.74a.225.225,0,0,1-.068.166.225.225,0,0,1-.166.068H-85.32a.225.225,0,0,1-.166-.068.225.225,0,0,1-.068-.166v-.779a1.393,1.393,0,0,0-.312-.945,1.051,1.051,0,0,0-.838-.36,1.029,1.029,0,0,0-.818.36,1.393,1.393,0,0,0-.312.945v6.623a1.393,1.393,0,0,0,.312.945,1.029,1.029,0,0,0,.818.36,1.051,1.051,0,0,0,.838-.36,1.393,1.393,0,0,0,.312-.945v-1.558a.086.086,0,0,0-.1-.1h-.857a.225.225,0,0,1-.166-.068.225.225,0,0,1-.068-.166v-1.734A.225.225,0,0,1-86.674-82a.225.225,0,0,1,.166-.068h3.467a.225.225,0,0,1,.166.068.225.225,0,0,1,.068.166v3.6a3.494,3.494,0,0,1-1.071,2.678A3.965,3.965,0,0,1-86.7-74.554ZM-74.14-86.221a.225.225,0,0,1-.068.166.225.225,0,0,1-.166.068h-4.071a.086.086,0,0,0-.1.1v3.078a.086.086,0,0,0,.1.1h2.337a.225.225,0,0,1,.166.068.225.225,0,0,1,.068.166v1.889a.225.225,0,0,1-.068.166.225.225,0,0,1-.166.068h-2.337a.086.086,0,0,0-.1.1v3.1a.086.086,0,0,0,.1.1h4.071a.225.225,0,0,1,.166.068.225.225,0,0,1,.068.166v1.889a.225.225,0,0,1-.068.166.225.225,0,0,1-.166.068h-6.681a.225.225,0,0,1-.166-.068.225.225,0,0,1-.068-.166V-88.11a.225.225,0,0,1,.068-.166.225.225,0,0,1,.166-.068h6.681a.225.225,0,0,1,.166.068.225.225,0,0,1,.068.166Z" transform="translate(115.2 94.899)" fill="#fff"/>
      </g>
    </g>
  </g>
</svg>
