<svg xmlns="http://www.w3.org/2000/svg" width="330" height="269.292" viewBox="0 0 330 269.292">
  <g id="Financial-Credit-Score" transform="translate(-47.65 -27.11)">
    <rect id="Rectangle_2243" data-name="Rectangle 2243" width="137.348" height="174.804" rx="8.82" transform="translate(92.263 36.721)" fill="#004068"/>
    <rect id="Rectangle_2244" data-name="Rectangle 2244" width="124.104" height="160.426" transform="translate(99.074 44.671)" fill="#fff"/>
    <rect id="Rectangle_2245" data-name="Rectangle 2245" width="59.63" height="15.723" rx="4" transform="translate(131.351 40.268)" fill="#e1e1e2"/>
    <path id="Path_2090" data-name="Path 2090" d="M303.291,27.11H267.536a2.446,2.446,0,0,0-2.446,2.446V42.247h1.979V30.661a1.341,1.341,0,0,1,1.341-1.341h34.008a1.341,1.341,0,0,1,1.336,1.341V42.247h1.987V29.556a2.446,2.446,0,0,0-2.45-2.446Z" transform="translate(-124.307)" fill="#e1e1e2"/>
    <rect id="Rectangle_2246" data-name="Rectangle 2246" width="52.07" height="38.039" rx="5.44" transform="translate(51.501 57.015)" fill="#00a2b8"/>
    <rect id="Rectangle_2247" data-name="Rectangle 2247" width="5.538" height="19.942" transform="translate(57.407 68.28)" fill="#fff"/>
    <rect id="Rectangle_2248" data-name="Rectangle 2248" width="5.538" height="8.309" transform="translate(66.085 79.913)" fill="#fff"/>
    <rect id="Rectangle_2249" data-name="Rectangle 2249" width="5.538" height="13.663" transform="translate(74.767 74.555)" fill="#fff"/>
    <rect id="Rectangle_2250" data-name="Rectangle 2250" width="5.538" height="10.896" transform="translate(83.517 77.326)" fill="#fff"/>
    <rect id="Rectangle_2251" data-name="Rectangle 2251" width="5.538" height="24.56" transform="translate(92.263 63.662)" fill="#fff"/>
    <rect id="Rectangle_2252" data-name="Rectangle 2252" width="51.428" height="68.432" rx="8.37" transform="translate(47.65 143.098)" fill="#00a2b8"/>
    <path id="Path_2091" data-name="Path 2091" d="M100.969,311.97v11.757a1.6,1.6,0,0,1-1.606,1.606H61.02a1.61,1.61,0,0,1-1.61-1.606V311.97a1.615,1.615,0,0,1,1.61-1.61H99.5a1.606,1.606,0,0,1,1.473,1.61Z" transform="translate(-6.723 -161.93)" fill="#fff"/>
    <rect id="Rectangle_2253" data-name="Rectangle 2253" width="9.115" height="8.382" rx="2.71" transform="translate(52.687 168)" fill="#004068"/>
    <rect id="Rectangle_2254" data-name="Rectangle 2254" width="9.115" height="8.382" rx="2.71" transform="translate(63.339 168)" fill="#004068"/>
    <rect id="Rectangle_2255" data-name="Rectangle 2255" width="9.115" height="8.382" rx="2.71" transform="translate(73.996 168)" fill="#004068"/>
    <rect id="Rectangle_2256" data-name="Rectangle 2256" width="9.115" height="8.382" rx="2.71" transform="translate(84.648 168)" fill="#004068"/>
    <rect id="Rectangle_2257" data-name="Rectangle 2257" width="9.115" height="8.382" rx="2.71" transform="translate(52.824 178.524)" fill="#004068"/>
    <rect id="Rectangle_2258" data-name="Rectangle 2258" width="9.115" height="8.382" rx="2.71" transform="translate(63.481 178.524)" fill="#004068"/>
    <rect id="Rectangle_2259" data-name="Rectangle 2259" width="9.115" height="8.382" rx="2.71" transform="translate(74.133 178.524)" fill="#004068"/>
    <rect id="Rectangle_2260" data-name="Rectangle 2260" width="9.115" height="8.382" rx="2.71" transform="translate(84.785 178.524)" fill="#004068"/>
    <rect id="Rectangle_2261" data-name="Rectangle 2261" width="9.115" height="8.382" rx="2.71" transform="translate(52.824 189.043)" fill="#004068"/>
    <rect id="Rectangle_2262" data-name="Rectangle 2262" width="9.115" height="8.382" rx="2.71" transform="translate(63.481 189.043)" fill="#004068"/>
    <rect id="Rectangle_2263" data-name="Rectangle 2263" width="9.115" height="8.382" rx="2.71" transform="translate(74.133 189.043)" fill="#004068"/>
    <rect id="Rectangle_2264" data-name="Rectangle 2264" width="9.115" height="18.906" rx="2.71" transform="translate(84.785 189.043)" fill="#fff"/>
    <rect id="Rectangle_2265" data-name="Rectangle 2265" width="9.115" height="8.382" rx="2.71" transform="translate(52.824 199.567)" fill="#004068"/>
    <rect id="Rectangle_2266" data-name="Rectangle 2266" width="9.115" height="8.382" rx="2.71" transform="translate(63.481 199.567)" fill="#004068"/>
    <rect id="Rectangle_2267" data-name="Rectangle 2267" width="9.115" height="8.382" rx="2.71" transform="translate(74.133 199.567)" fill="#004068"/>
    <circle id="Ellipse_66" data-name="Ellipse 66" cx="18.996" cy="18.996" r="18.996" transform="translate(106.406 149.424)" fill="#e1e1e2"/>
    <rect id="Rectangle_2268" data-name="Rectangle 2268" width="33.31" height="9.303" rx="3.4" transform="translate(151.576 152.684)" fill="#e1e1e2"/>
    <rect id="Rectangle_2269" data-name="Rectangle 2269" width="64.307" height="2.518" transform="translate(151.576 166.535)" fill="#e1e1e2"/>
    <rect id="Rectangle_2270" data-name="Rectangle 2270" width="64.307" height="2.518" transform="translate(151.576 171.568)" fill="#e1e1e2"/>
    <rect id="Rectangle_2271" data-name="Rectangle 2271" width="64.307" height="2.518" transform="translate(151.576 177.295)" fill="#e1e1e2"/>
    <rect id="Rectangle_2272" data-name="Rectangle 2272" width="10.811" height="2.518" transform="translate(151.576 182.1)" fill="#e1e1e2"/>
    <rect id="Rectangle_2273" data-name="Rectangle 2273" width="8.074" height="2.518" transform="translate(169.6 182.623)" fill="#e1e1e2"/>
    <rect id="Rectangle_2274" data-name="Rectangle 2274" width="10.973" height="2.518" transform="translate(183.73 182.623)" fill="#e1e1e2"/>
    <path id="Path_2092" data-name="Path 2092" d="M63.17,325.334l9.042-14.974h9.115l-9.115,14.974Z" transform="translate(-8.873 -161.93)" fill="#00a2b8" opacity="0.22"/>
    <path id="Path_2093" data-name="Path 2093" d="M91.95,325.334l8.823-14.974H102.9l-8.519,14.974Z" transform="translate(-25.326 -161.93)" fill="#00a2b8" opacity="0.22"/>
    <path id="Path_2094" data-name="Path 2094" d="M110.65,325.334l9.607-14.974h3.675l-9.363,14.974Z" transform="translate(-36.016 -161.93)" fill="#00a2b8" opacity="0.22"/>
    <path id="Path_2095" data-name="Path 2095" d="M141.57,311.976v2.253l-7.144,11.111h-4l9.667-14.97A1.606,1.606,0,0,1,141.57,311.976Z" transform="translate(-47.324 -161.935)" fill="#00a2b8" opacity="0.22"/>
    <path id="Path_2096" data-name="Path 2096" d="M226.1,193.176a22.491,22.491,0,0,0-6.6,15.942H193a48.862,48.862,0,0,1,14.361-34.668Z" transform="translate(-83.094 -84.232)" fill="#00a2b8"/>
    <path id="Path_2097" data-name="Path 2097" d="M226.1,193.176a22.491,22.491,0,0,0-6.6,15.942H193a48.862,48.862,0,0,1,14.361-34.668Z" transform="translate(-83.094 -84.232)" opacity="0.4"/>
    <path id="Path_2098" data-name="Path 2098" d="M218.678,208.918h-26.5a.612.612,0,0,1-.612-.612,49.3,49.3,0,0,1,14.541-35.1.608.608,0,0,1,.857,0l18.726,18.726a.608.608,0,0,1,0,.857,21.805,21.805,0,0,0-6.425,15.509.613.613,0,0,1-.591.621ZM192.8,207.71h25.271a22.958,22.958,0,0,1,6.348-15.325l-17.869-17.869A48.1,48.1,0,0,0,192.8,207.71Z" transform="translate(-82.277 -83.419)" fill="#004068"/>
    <path id="Path_2099" data-name="Path 2099" d="M261.218,140.92v26.487a22.482,22.482,0,0,0-15.942,6.6L226.55,155.281a48.862,48.862,0,0,1,34.668-14.361Z" transform="translate(-102.274 -65.063)" fill="#00a2b8"/>
    <path id="Path_2100" data-name="Path 2100" d="M261.218,140.92v26.487a22.482,22.482,0,0,0-15.942,6.6L226.55,155.281a48.862,48.862,0,0,1,34.668-14.361Z" transform="translate(-102.274 -65.063)" opacity="0.3"/>
    <path id="Path_2101" data-name="Path 2101" d="M244.469,173.813a.613.613,0,0,1-.428-.18l-18.726-18.726a.608.608,0,0,1,0-.857,49.312,49.312,0,0,1,35.122-14.541.612.612,0,0,1,.612.612v26.487a.608.608,0,0,1-.612.608,21.806,21.806,0,0,0-15.509,6.425A.608.608,0,0,1,244.469,173.813Zm-17.861-19.338,17.865,17.869A23,23,0,0,1,259.8,166V140.726a48.1,48.1,0,0,0-33.19,13.749Z" transform="translate(-101.467 -64.257)" fill="#004068"/>
    <path id="Path_2102" data-name="Path 2102" d="M342.162,155.281l-18.73,18.726a22.482,22.482,0,0,0-15.942-6.6V140.92A48.879,48.879,0,0,1,342.162,155.281Z" transform="translate(-148.546 -65.063)" fill="#00a2b8"/>
    <path id="Path_2103" data-name="Path 2103" d="M342.162,155.281l-18.73,18.726a22.482,22.482,0,0,0-15.942-6.6V140.92A48.879,48.879,0,0,1,342.162,155.281Z" transform="translate(-148.546 -65.063)" opacity="0.2"/>
    <path id="Path_2104" data-name="Path 2104" d="M322.62,173.8a.612.612,0,0,1-.428-.18,21.806,21.806,0,0,0-15.509-6.425.608.608,0,0,1-.612-.608V140.1a.612.612,0,0,1,.612-.612A49.329,49.329,0,0,1,341.8,154.031a.617.617,0,0,1,0,.857l-18.73,18.726A.608.608,0,0,1,322.62,173.8Zm-15.329-7.817a22.988,22.988,0,0,1,15.325,6.348l17.865-17.869a48.087,48.087,0,0,0-33.19-13.749Z" transform="translate(-147.735 -64.246)" fill="#004068"/>
    <path id="Path_2105" data-name="Path 2105" d="M377.815,209.118h-26.5a22.474,22.474,0,0,0-6.6-15.942l18.73-18.726A48.879,48.879,0,0,1,377.815,209.118Z" transform="translate(-169.825 -84.232)" fill="#00a2b8"/>
    <path id="Path_2106" data-name="Path 2106" d="M377.006,208.929h-26.5a.612.612,0,0,1-.612-.612,21.806,21.806,0,0,0-6.425-15.509.617.617,0,0,1,0-.857l18.73-18.726a.608.608,0,0,1,.857,0,49.321,49.321,0,0,1,14.541,35.1A.613.613,0,0,1,377.006,208.929Zm-25.9-1.208h25.271a48.087,48.087,0,0,0-13.749-33.194L344.767,192.4A23,23,0,0,1,351.11,207.721Z" transform="translate(-169.016 -83.431)" fill="#004068"/>
    <path id="Path_2118" data-name="Path 2118" d="M371.428,265.48h.929v1.782a2.715,2.715,0,0,1-.827.428,3.3,3.3,0,0,1-.947.146,2.57,2.57,0,0,1-1.229-.291,2.2,2.2,0,0,1-.857-.81,2.373,2.373,0,0,1,0-2.339,2.167,2.167,0,0,1,.857-.805,2.591,2.591,0,0,1,1.242-.291,2.719,2.719,0,0,1,1.045.193,2.073,2.073,0,0,1,.792.561l-.651.6a1.521,1.521,0,0,0-1.135-.5,1.546,1.546,0,0,0-.745.176,1.285,1.285,0,0,0-.51.5,1.473,1.473,0,0,0-.18.732,1.456,1.456,0,0,0,.18.728,1.285,1.285,0,0,0,.505.5,1.478,1.478,0,0,0,.737.18,1.649,1.649,0,0,0,.788-.188Z" transform="translate(-183.248 -135.026)" fill="#004068"/>
    <path id="Path_2119" data-name="Path 2119" d="M380.645,267.5a2.142,2.142,0,0,1-.857-.814,2.339,2.339,0,0,1,0-2.321,2.141,2.141,0,0,1,.857-.814,2.741,2.741,0,0,1,2.458,0,2.24,2.24,0,0,1,0,3.949A2.7,2.7,0,0,1,380.645,267.5Zm1.932-.75a1.285,1.285,0,0,0,.493-.5,1.563,1.563,0,0,0,0-1.456,1.306,1.306,0,0,0-.493-.5,1.46,1.46,0,0,0-1.4,0,1.306,1.306,0,0,0-.493.5,1.6,1.6,0,0,0,0,1.456,1.285,1.285,0,0,0,.493.5A1.461,1.461,0,0,0,382.577,266.751Z" transform="translate(-189.702 -135.004)" fill="#004068"/>
    <path id="Path_2120" data-name="Path 2120" d="M392.985,267.5a2.176,2.176,0,0,1-.857-.814,2.339,2.339,0,0,1,0-2.321,2.176,2.176,0,0,1,.857-.814,2.75,2.75,0,0,1,2.463,0,2.236,2.236,0,0,1,.857.814,2.313,2.313,0,0,1,0,2.321,2.236,2.236,0,0,1-.857.814,2.711,2.711,0,0,1-2.463,0Zm1.936-.75a1.307,1.307,0,0,0,.493-.5,1.6,1.6,0,0,0,0-1.456,1.337,1.337,0,0,0-.493-.5,1.461,1.461,0,0,0-1.4,0,1.307,1.307,0,0,0-.493.5,1.563,1.563,0,0,0,0,1.456,1.285,1.285,0,0,0,.493.5A1.46,1.46,0,0,0,394.921,266.751Z" transform="translate(-196.757 -135.003)" fill="#004068"/>
    <path id="Path_2121" data-name="Path 2121" d="M404.81,263.429H406.8a2.784,2.784,0,0,1,1.285.274,2.056,2.056,0,0,1,.857.767,2.334,2.334,0,0,1,0,2.3,2.056,2.056,0,0,1-.857.767,2.784,2.784,0,0,1-1.285.274H404.81Zm1.94,3.555a1.473,1.473,0,0,0,1.049-.368,1.452,1.452,0,0,0,0-1.987,1.469,1.469,0,0,0-1.049-.364h-.925v2.72Z" transform="translate(-204.183 -135.099)" fill="#004068"/>
    <path id="Path_2122" data-name="Path 2122" d="M299.169,224.135l32.552-5.465a1.568,1.568,0,0,1,.822,3L301.7,233.5a4.884,4.884,0,0,1-3.5-9.119A5.508,5.508,0,0,1,299.169,224.135Z" transform="translate(-141.446 -109.503)" fill="#e1e1e2"/>
    <circle id="Ellipse_67" data-name="Ellipse 67" cx="2.613" cy="2.613" r="2.613" transform="translate(155.457 116.838)" fill="#00a2b8"/>
    <path id="Path_2123" data-name="Path 2123" d="M202.555,263.621a1.572,1.572,0,0,1,.664.553,1.533,1.533,0,0,1,.231.857,1.516,1.516,0,0,1-.231.857,1.486,1.486,0,0,1-.664.553,2.446,2.446,0,0,1-1.011.193h-.9v1.208H199.63v-4.412h1.9A2.446,2.446,0,0,1,202.555,263.621Zm-.373,1.962a.788.788,0,0,0,0-1.131,1.079,1.079,0,0,0-.694-.2h-.844v1.525h.857A1.079,1.079,0,0,0,202.183,265.583Z" transform="translate(-86.885 -135.099)" fill="#004068"/>
    <path id="Path_2124" data-name="Path 2124" d="M210.882,267.5a2.24,2.24,0,0,1,0-3.949,2.741,2.741,0,0,1,2.459,0,2.236,2.236,0,0,1,0,3.949,2.7,2.7,0,0,1-2.459,0Zm1.932-.75a1.285,1.285,0,0,0,.493-.5,1.563,1.563,0,0,0,0-1.456,1.307,1.307,0,0,0-.493-.5,1.452,1.452,0,0,0-1.4,0,1.307,1.307,0,0,0-.493.5,1.563,1.563,0,0,0,0,1.456,1.285,1.285,0,0,0,.493.5,1.452,1.452,0,0,0,1.4,0Z" transform="translate(-92.641 -135.004)" fill="#004068"/>
    <path id="Path_2125" data-name="Path 2125" d="M223.249,267.5a2.18,2.18,0,0,1-1.169-1.975,2.219,2.219,0,0,1,.308-1.161,2.189,2.189,0,0,1,.857-.814,2.741,2.741,0,0,1,2.459,0,2.24,2.24,0,0,1,0,3.949,2.7,2.7,0,0,1-2.459,0Zm1.932-.75a1.285,1.285,0,0,0,.493-.5,1.563,1.563,0,0,0,0-1.456,1.307,1.307,0,0,0-.493-.5,1.46,1.46,0,0,0-1.4,0,1.285,1.285,0,0,0-.488.5,1.563,1.563,0,0,0,0,1.456,1.285,1.285,0,0,0,.488.5A1.46,1.46,0,0,0,225.18,266.751Z" transform="translate(-99.718 -135.004)" fill="#004068"/>
    <path id="Path_2126" data-name="Path 2126" d="M237.855,267.815,237,266.594h-.934v1.221H235.05v-4.386h1.9a2.466,2.466,0,0,1,1.015.193,1.559,1.559,0,0,1,.66.553,1.534,1.534,0,0,1,.231.857,1.465,1.465,0,0,1-.236.857,1.448,1.448,0,0,1-.664.544l.981,1.409Zm-.257-3.362a1.092,1.092,0,0,0-.7-.2h-.827v1.529h.827a1.045,1.045,0,0,0,.7-.2.8.8,0,0,0,0-1.131Z" transform="translate(-107.134 -135.1)" fill="#004068"/>
    <rect id="Rectangle_2275" data-name="Rectangle 2275" width="41.945" height="11.783" rx="5.891" transform="translate(211.224 49.524)" fill="#00a2b8"/>
    <path id="Path_2127" data-name="Path 2127" d="M442.4,86.416a1.846,1.846,0,1,1-.544-1.308,1.846,1.846,0,0,1,.544,1.308Z" transform="translate(-223.563 -32.849)" fill="#fff"/>
    <path id="Path_2128" data-name="Path 2128" d="M438.455,94.65a3.4,3.4,0,0,0-3.405,3.4h6.806A3.4,3.4,0,0,0,438.455,94.65Z" transform="translate(-221.471 -38.612)" fill="#fff"/>
    <path id="Path_2129" data-name="Path 2129" d="M482.806,86.416H455.865a.925.925,0,0,1-.925-.921h0a.925.925,0,0,1,.925-.925h26.941a.925.925,0,0,1,.921.925h0A.921.921,0,0,1,482.806,86.416Z" transform="translate(-232.841 -32.849)" opacity="0.2"/>
    <path id="Path_2130" data-name="Path 2130" d="M458.489,93.164l.463.938a.231.231,0,0,0,.167.12l1.032.15a.218.218,0,0,1,.12.373l-.75.728a.21.21,0,0,0-.06.193l.176,1.028a.218.218,0,0,1-.317.227l-.921-.471a.218.218,0,0,0-.206,0l-.925.484a.214.214,0,0,1-.313-.227l.176-1.028a.214.214,0,0,0-.064-.193l-.745-.75a.218.218,0,0,1,.12-.373l1.032-.15a.218.218,0,0,0,.163-.12l.463-.938a.218.218,0,0,1,.39.009Z" transform="translate(-233.593 -37.691)" fill="#004068"/>
    <path id="Path_2131" data-name="Path 2131" d="M472.473,93.164l.463.938a.218.218,0,0,0,.163.12l1.032.15a.218.218,0,0,1,.12.373l-.745.728a.214.214,0,0,0-.064.193l.176,1.028a.214.214,0,0,1-.313.227l-.925-.471a.21.21,0,0,0-.2,0l-.925.484a.218.218,0,0,1-.317-.227l.176-1.028a.21.21,0,0,0-.06-.193l-.75-.75a.218.218,0,0,1,.12-.373l1.032-.15a.231.231,0,0,0,.167-.12l.463-.938a.218.218,0,0,1,.39.009Z" transform="translate(-241.586 -37.691)" fill="#004068"/>
    <path id="Path_2132" data-name="Path 2132" d="M486.454,93.164l.463.938a.223.223,0,0,0,.163.12l1.032.15a.218.218,0,0,1,.124.373l-.75.728a.21.21,0,0,0-.06.193l.176,1.028a.218.218,0,0,1-.317.227l-.925-.471a.21.21,0,0,0-.2,0l-.925.484a.218.218,0,0,1-.317-.227l.18-1.028a.223.223,0,0,0-.064-.193l-.75-.75a.218.218,0,0,1,.124-.373l1.032-.15a.223.223,0,0,0,.163-.12l.463-.938a.218.218,0,0,1,.39.009Z" transform="translate(-249.578 -37.691)" fill="#004068"/>
    <path id="Path_2133" data-name="Path 2133" d="M500.443,93.165l.458.938a.231.231,0,0,0,.167.12l1.032.15a.218.218,0,0,1,.12.373l-.745.728a.214.214,0,0,0-.064.193l.176,1.028a.218.218,0,0,1-.317.227l-.921-.471a.218.218,0,0,0-.206,0l-.921.484a.218.218,0,0,1-.317-.227l.176-1.028a.214.214,0,0,0-.064-.193l-.745-.75a.218.218,0,0,1,.12-.373l1.032-.15a.231.231,0,0,0,.167-.12l.458-.938a.223.223,0,0,1,.394.009Z" transform="translate(-257.576 -37.692)" fill="#fff"/>
    <path id="Path_2134" data-name="Path 2134" d="M514.423,93.145l.463.938a.223.223,0,0,0,.163.12l1.032.15a.218.218,0,0,1,.12.373l-.745.728a.223.223,0,0,0-.064.193l.18,1.028a.218.218,0,0,1-.317.227l-.925-.471a.21.21,0,0,0-.2,0l-.925.484a.218.218,0,0,1-.317-.227l.176-1.028a.21.21,0,0,0-.06-.193l-.75-.75a.218.218,0,0,1,.12-.373l1.019-.141a.231.231,0,0,0,.163-.12l.463-.938a.218.218,0,0,1,.407,0Z" transform="translate(-265.568 -37.672)" fill="#fff"/>
    <rect id="Rectangle_2276" data-name="Rectangle 2276" width="41.945" height="11.783" rx="5.891" transform="translate(237.724 83.716)" fill="#00a2b8"/>
    <path id="Path_2135" data-name="Path 2135" d="M504.272,166.246a1.846,1.846,0,1,1-1.846-1.846,1.846,1.846,0,0,1,1.846,1.846Z" transform="translate(-258.933 -78.487)" fill="#fff"/>
    <path id="Path_2136" data-name="Path 2136" d="M500.275,174.47a3.427,3.427,0,0,0-3.405,3.405h6.806a3.4,3.4,0,0,0-3.4-3.405Z" transform="translate(-256.812 -84.243)" fill="#fff"/>
    <path id="Path_2137" data-name="Path 2137" d="M544.646,166.246H517.705a.925.925,0,0,1-.925-.921h0a.925.925,0,0,1,.925-.925h26.941a.925.925,0,0,1,.925.925h0a.925.925,0,0,1-.925.921Z" transform="translate(-268.194 -78.487)" opacity="0.2"/>
    <path id="Path_2138" data-name="Path 2138" d="M520.363,172.994l.458.934a.223.223,0,0,0,.167.12l1.032.15a.218.218,0,0,1,.12.373l-.745.728a.219.219,0,0,0-.064.193l.176,1.028a.218.218,0,0,1-.317.231l-.921-.484a.218.218,0,0,0-.206,0l-.921.484a.218.218,0,0,1-.317-.231l.176-1.028a.219.219,0,0,0-.064-.193l-.745-.728a.218.218,0,0,1,.12-.373l1.032-.15a.223.223,0,0,0,.167-.12l.458-.934a.218.218,0,0,1,.394,0Z" transform="translate(-268.964 -83.329)" fill="#004068"/>
    <path id="Path_2139" data-name="Path 2139" d="M534.344,173l.463.934a.214.214,0,0,0,.163.12l1.032.15a.218.218,0,0,1,.124.373l-.75.728a.231.231,0,0,0-.064.193l.18,1.028a.218.218,0,0,1-.317.231l-.925-.484a.21.21,0,0,0-.2,0l-.925.484a.218.218,0,0,1-.317-.231l.176-1.028a.218.218,0,0,0-.06-.193l-.75-.728a.218.218,0,0,1,.124-.373l1.032-.15a.214.214,0,0,0,.163-.12l.463-.934a.218.218,0,0,1,.39,0Z" transform="translate(-276.956 -83.335)" fill="#004068"/>
    <path id="Path_2140" data-name="Path 2140" d="M548.329,173l.463.934a.223.223,0,0,0,.167.12l1.032.15a.218.218,0,0,1,.12.373l-.75.728a.218.218,0,0,0-.06.193l.176,1.028a.218.218,0,0,1-.317.231l-.925-.484a.21.21,0,0,0-.2,0l-.925.484a.214.214,0,0,1-.313-.231l.176-1.028a.219.219,0,0,0-.064-.193l-.745-.728a.218.218,0,0,1,.12-.373l1.032-.15a.205.205,0,0,0,.163-.12l.463-.934a.218.218,0,0,1,.39,0Z" transform="translate(-284.954 -83.335)" fill="#fff"/>
    <path id="Path_2141" data-name="Path 2141" d="M562.313,173l.463.934a.205.205,0,0,0,.163.12l1.032.15a.218.218,0,0,1,.12.373l-.745.728a.218.218,0,0,0-.064.193l.176,1.028a.214.214,0,0,1-.313.231l-.925-.484a.21.21,0,0,0-.2,0l-.925.484a.218.218,0,0,1-.317-.231l.176-1.028a.219.219,0,0,0-.06-.193l-.75-.728a.218.218,0,0,1,.12-.373l1.032-.15a.223.223,0,0,0,.167-.12l.463-.934a.218.218,0,0,1,.39,0Z" transform="translate(-292.946 -83.335)" fill="#fff"/>
    <path id="Path_2142" data-name="Path 2142" d="M576.294,173l.463.934a.214.214,0,0,0,.163.12l1.032.15a.218.218,0,0,1,.124.373l-.75.728a.218.218,0,0,0-.06.193l.176,1.028a.218.218,0,0,1-.317.231l-.925-.484a.21.21,0,0,0-.2,0l-.925.484a.218.218,0,0,1-.317-.231l.18-1.028a.231.231,0,0,0-.064-.193l-.75-.728a.218.218,0,0,1,.124-.373l1.032-.15a.214.214,0,0,0,.163-.12L575.9,173a.218.218,0,0,1,.39,0Z" transform="translate(-300.939 -83.335)" fill="#fff"/>
    <rect id="Rectangle_2277" data-name="Rectangle 2277" width="57.069" height="16.032" rx="8.016" transform="translate(106.543 223.356)" fill="#00a2b8"/>
    <path id="Path_2143" data-name="Path 2143" d="M202.64,494.784a2.51,2.51,0,1,1-.734-1.778,2.51,2.51,0,0,1,.734,1.778Z" transform="translate(-85.736 -265.925)" fill="#fff"/>
    <path id="Path_2144" data-name="Path 2144" d="M197.2,506a4.63,4.63,0,0,0-4.63,4.63h9.26A4.63,4.63,0,0,0,197.2,506Z" transform="translate(-82.849 -273.774)" fill="#fff"/>
    <path id="Path_2145" data-name="Path 2145" d="M257.57,494.784H220.915a1.255,1.255,0,0,1-1.255-1.255h0a1.259,1.259,0,0,1,1.255-1.259H257.57a1.259,1.259,0,0,1,1.255,1.259h0a1.255,1.255,0,0,1-1.255,1.255Z" transform="translate(-98.335 -265.925)" opacity="0.2"/>
    <path id="Path_2146" data-name="Path 2146" d="M224.531,503.974l.625,1.285a.3.3,0,0,0,.227.163l1.4.206a.3.3,0,0,1,.163.505l-1.015.989a.291.291,0,0,0-.086.266l.24,1.4a.3.3,0,0,1-.428.313l-1.255-.66a.291.291,0,0,0-.278,0l-1.255.66a.3.3,0,0,1-.428-.313l.24-1.4a.317.317,0,0,0-.086-.266l-1.019-.989a.3.3,0,0,1,.167-.505l1.4-.206a.291.291,0,0,0,.223-.163l.63-1.285a.3.3,0,0,1,.527,0Z" transform="translate(-99.382 -272.524)" fill="#004068"/>
    <path id="Path_2147" data-name="Path 2147" d="M243.556,503.974l.63,1.285a.291.291,0,0,0,.223.163l1.4.206a.3.3,0,0,1,.167.505l-1.019.989a.3.3,0,0,0-.086.266l.24,1.4a.3.3,0,0,1-.428.313l-1.259-.66a.283.283,0,0,0-.274,0l-1.255.66a.3.3,0,0,1-.428-.313l.24-1.4a.291.291,0,0,0-.086-.266l-1.015-.989a.3.3,0,0,1,.163-.505l1.4-.206a.283.283,0,0,0,.223-.163l.63-1.285a.3.3,0,0,1,.527,0Z" transform="translate(-110.26 -272.524)" fill="#004068"/>
    <path id="Path_2148" data-name="Path 2148" d="M262.581,503.974l.63,1.285a.283.283,0,0,0,.223.163l1.4.206a.3.3,0,0,1,.163.505l-1.015.989a.3.3,0,0,0-.086.266l.24,1.4a.3.3,0,0,1-.428.313l-1.255-.66a.283.283,0,0,0-.274,0l-1.259.66a.3.3,0,0,1-.428-.313l.24-1.4a.3.3,0,0,0-.086-.266l-1.019-.989a.3.3,0,0,1,.167-.505l1.4-.206a.291.291,0,0,0,.223-.163l.63-1.285a.3.3,0,0,1,.527,0Z" transform="translate(-121.134 -272.524)" fill="#004068"/>
    <path id="Path_2149" data-name="Path 2149" d="M281.616,503.981l.625,1.285a.291.291,0,0,0,.223.163l1.4.206a.3.3,0,0,1,.167.505l-1.019.989a.317.317,0,0,0-.086.266l.244,1.4a.3.3,0,0,1-.428.313l-1.255-.66a.291.291,0,0,0-.278,0l-1.255.66a.3.3,0,0,1-.428-.313l.24-1.4a.291.291,0,0,0-.086-.266l-1.015-.989a.3.3,0,0,1,.163-.505l1.4-.206a.291.291,0,0,0,.227-.163l.625-1.285a.3.3,0,0,1,.527,0Z" transform="translate(-132.018 -272.53)" fill="#004068"/>
    <path id="Path_2150" data-name="Path 2150" d="M300.647,503.976l.63,1.285a.283.283,0,0,0,.223.163l1.422.184a.3.3,0,0,1,.163.505l-1.019,1a.3.3,0,0,0-.086.266l.24,1.4a.3.3,0,0,1-.428.313l-1.259-.66a.283.283,0,0,0-.274,0l-1.259.66a.3.3,0,0,1-.428-.313l.24-1.4a.3.3,0,0,0-.086-.266l-1.015-.989a.3.3,0,0,1,.163-.505l1.4-.206a.283.283,0,0,0,.223-.163l.63-1.285a.3.3,0,0,1,.518.013Z" transform="translate(-142.903 -272.526)" fill="#fff"/>
    <rect id="Rectangle_2278" data-name="Rectangle 2278" width="3.786" height="62.478" transform="translate(330.176 284.583) rotate(180)" fill="#2e3135"/>
    <path id="Path_2151" data-name="Path 2151" d="M647.91,636.346h.8V634.4a6.6,6.6,0,0,1,6.592-6.592H685.64a8.566,8.566,0,0,1,8.541,8.541h.805A9.355,9.355,0,0,0,685.64,627H655.3a7.4,7.4,0,0,0-7.393,7.393Z" transform="translate(-343.159 -342.948)" fill="#3f4347"/>
    <path id="Path_2152" data-name="Path 2152" d="M712.19,635.012l.762-.253c-.081-.248-2.082-6.056-7.671-7.71l-.231.771C710.245,629.359,712.173,634.957,712.19,635.012Z" transform="translate(-375.825 -342.976)" fill="#3f4347"/>
    <circle id="Ellipse_68" data-name="Ellipse 68" cx="2.981" cy="2.981" r="2.981" transform="translate(333.701 290.417)" fill="#2e3135"/>
    <circle id="Ellipse_69" data-name="Ellipse 69" cx="2.981" cy="2.981" r="2.981" transform="translate(348.37 290.417)" fill="#2e3135"/>
    <circle id="Ellipse_70" data-name="Ellipse 70" cx="2.981" cy="2.981" r="2.981" transform="translate(302.104 290.417)" fill="#2e3135"/>
    <path id="Path_2153" data-name="Path 2153" d="M653.47,385.428h47.162l6.712-67.528H653.47Z" transform="translate(-346.338 -166.24)" fill="#2e3135"/>
    <rect id="Rectangle_2279" data-name="Rectangle 2279" width="35.769" height="2.18" transform="matrix(-0.885, 0.466, -0.466, -0.885, 328.893, 279.731)" fill="#004068"/>
    <rect id="Rectangle_2280" data-name="Rectangle 2280" width="13.642" height="9.192" transform="matrix(0.885, -0.466, 0.466, 0.885, 303.462, 263.14)" fill="#f9b499"/>
    <path id="Path_2154" data-name="Path 2154" d="M627.74,611.89l31.644-16.67-8.065-12.849-10.549,5.568a6.459,6.459,0,0,0-.977-2.283,2.416,2.416,0,0,0-.75-.724c-1.011-.6-1.525.086-1.773.732a3.169,3.169,0,0,0-.188,1.341,28.871,28.871,0,0,1-1.486,10.027,14.726,14.726,0,0,1-2.767,5.033,14.916,14.916,0,0,1-1.512,1.568C626.288,608.15,627.74,611.89,627.74,611.89Z" transform="translate(-331.517 -317.434)" fill="#00a2b8"/>
    <path id="Path_2155" data-name="Path 2155" d="M639.91,605.126c11.586-3.161,7.941-14.134,7.941-14.134a6.459,6.459,0,0,0-.977-2.283,2.416,2.416,0,0,0-.75-.724c-1.011-.6-1.525.086-1.773.732a3.17,3.17,0,0,0-.188,1.341,28.87,28.87,0,0,1-1.486,10.027A14.725,14.725,0,0,1,639.91,605.126Z" transform="translate(-338.586 -320.512)" opacity="0.2"/>
    <path id="Path_2156" data-name="Path 2156" d="M657.8,563.37l2.373,4.5L646.35,569.4Z" transform="translate(-342.267 -306.572)" fill="#f7a48b"/>
    <rect id="Rectangle_2281" data-name="Rectangle 2281" width="13.642" height="9.192" transform="translate(265.65 269.879)" fill="#f9b499"/>
    <path id="Path_2157" data-name="Path 2157" d="M507.64,625.028h35.769L542.261,609.9h-11.92a6.571,6.571,0,0,0,.2-2.476,2.39,2.39,0,0,0-.326-.989c-.617-1-1.388-.634-1.91-.18a3.1,3.1,0,0,0-.788,1.1,28.942,28.942,0,0,1-6,8.177,14.615,14.615,0,0,1-4.793,3.161,15.193,15.193,0,0,1-2.069.685C508.085,621.04,507.64,625.028,507.64,625.028Z" transform="translate(-262.969 -330.824)" fill="#00a2b8"/>
    <path id="Path_2158" data-name="Path 2158" d="M528.86,618.689c11.723,2.608,13.612-8.793,13.612-8.793a6.571,6.571,0,0,0,.2-2.476,2.39,2.39,0,0,0-.326-.989c-.617-1-1.388-.634-1.91-.18a3.1,3.1,0,0,0-.788,1.1,28.942,28.942,0,0,1-6,8.177A14.615,14.615,0,0,1,528.86,618.689Z" transform="translate(-275.1 -330.824)" opacity="0.2"/>
    <path id="Path_2159" data-name="Path 2159" d="M571.2,593.91V599L558.26,593.91Z" transform="translate(-291.908 -324.031)" fill="#f7a48b"/>
    <path id="Path_2160" data-name="Path 2160" d="M563.708,277.646c.206.171-3.594,6.061-3.594,6.061L540.125,267.1a3.333,3.333,0,0,1-.471-.48c-.253-.326-.732-.925-1.336-1.64a60.456,60.456,0,0,1-4.236-5.8c-.5-.758-1.127-1.332-1.816-1,0,0-1.756.381,0,4.66l-10.674-3.821a1.066,1.066,0,0,0-1.285.5l-.077.141a1.066,1.066,0,0,0,.381,1.418l5.007,3.045a.116.116,0,0,1-.1.2l-5.692-2.279a1.066,1.066,0,0,0-1.409.672l-.141.45a1.058,1.058,0,0,0,.578,1.285l5.435,2.45a.116.116,0,0,1-.081.214l-5.3-1.559a1.062,1.062,0,0,0-1.285.612h0a1.066,1.066,0,0,0,.544,1.379l6.1,2.741a.116.116,0,0,1-.056.218l-3.294-.266a1.062,1.062,0,0,0-1.075.672l-.043.111a1.062,1.062,0,0,0,.518,1.341h0a52.759,52.759,0,0,1,7.911,4.8l28.436,20.9a14.438,14.438,0,0,0,7.2,2.8c3.337.313,7.281-.5,8.6-5.53l5.285-10.3-12.725-9.085Z" transform="translate(-268.629 -132.046)" fill="#f9b499"/>
    <rect id="Rectangle_2282" data-name="Rectangle 2282" width="19.895" height="3.469" transform="translate(295.221 186.234) rotate(180)" fill="#004068"/>
    <path id="Path_2161" data-name="Path 2161" d="M715.912,322.414,709.2,389.6H661.31V387.36a5.457,5.457,0,0,1,5.435-5.457h34.492l6.485-60.333a4.112,4.112,0,0,1,4.086-3.671h0a4.107,4.107,0,0,1,4.1,4.514Z" transform="translate(-350.82 -166.24)" fill="#3f4347"/>
    <path id="Path_2162" data-name="Path 2162" d="M621.83,391.794v16.863s-.994,12.755-14.421,14.768H585.59L601.7,462.534l-34.24,12.421-2.514-14.606-2.518,17.291H528.86l7.217-51.7s.767-22.118,22.658-27.19l16.91-4.5,5.9-.681L620,390.53Z" transform="translate(-275.1 -207.762)" fill="#004068"/>
    <path id="Path_2163" data-name="Path 2163" d="M664.175,462.9l.24-.116-16.739-35.734a2.7,2.7,0,0,1,2.45-3.855h21.047a19.7,19.7,0,0,0,7.98-2.664c3.649-2.2,8.014-6.69,8.1-15.595V396.06h-.266v8.875c-.086,8.776-4.377,13.2-7.962,15.364a19.373,19.373,0,0,1-7.86,2.63H650.126a2.972,2.972,0,0,0-2.69,4.232Z" transform="translate(-342.729 -210.923)" fill="#fff"/>
    <path id="Path_2164" data-name="Path 2164" d="M726.8,413.95l.1-.244c-8.6-3.739-6.737-16.854-6.716-16.987l-.266-.039C719.9,396.817,718,410.133,726.8,413.95Z" transform="translate(-384.22 -211.277)" fill="#fff"/>
    <path id="Path_2165" data-name="Path 2165" d="M601.9,500.225,593.51,460.28l5.876,57.236Z" transform="translate(-312.06 -247.637)" opacity="0.2"/>
    <path id="Path_2166" data-name="Path 2166" d="M756.72,410.88l13.758,104.895H774.3L762.412,410.88Z" transform="translate(-405.364 -219.395)" fill="#9ea0a3"/>
    <path id="Path_2167" data-name="Path 2167" d="M679.9,300.685l-.283-6.669s1.538-16.143-13.222-17.878H634.576s-4.562-.591-8.138,5.333l-4.078,5.435,10.28,8.442s-3.11,2.039-2.621,5.341a6.532,6.532,0,0,0,3.217,5.568v17.428h30.346V303.191Z" transform="translate(-328.553 -142.356)" fill="#00a2b8"/>
    <path id="Path_2168" data-name="Path 2168" d="M678.09,318.1l-2.3.724.574-16.623-3.092,24.191-25.528,5.679,30.35-2.964Z" transform="translate(-343.062 -157.265)" opacity="0.2"/>
    <path id="Path_2169" data-name="Path 2169" d="M662.294,258.862v-3.589a9.853,9.853,0,0,1-7.32-9.363s-.184,3.427-3.581,7.281c0,0-2.878,3.182-3.324,5.688Z" transform="translate(-343.251 -125.085)" fill="#004068"/>
    <path id="Path_2170" data-name="Path 2170" d="M641.628,306.834l.737-10.614-4.275,7.714Z" transform="translate(-337.545 -153.846)" opacity="0.2"/>
    <rect id="Rectangle_2283" data-name="Rectangle 2283" width="35.769" height="2.18" transform="translate(280.44 296.379) rotate(180)" fill="#004068"/>
    <path id="Path_2171" data-name="Path 2171" d="M552.7,271.16a8.193,8.193,0,0,0,3,3.289" transform="translate(-288.729 -139.52)" fill="none" stroke="#f7a48b" stroke-width="1"/>
    <path id="Path_2172" data-name="Path 2172" d="M416.489,410.93,401.935,515.786H398.11L410.8,410.93Z" transform="translate(-200.353 -219.424)" fill="#9ea0a3"/>
    <path id="Path_2173" data-name="Path 2173" d="M692.211,250a20.56,20.56,0,0,0,1.041,9.744,2.474,2.474,0,0,1-1.229,3.975s-10.357,2.827-10.742-2.523v-4.283Z" transform="translate(-362.236 -127.423)" fill="#f9b499"/>
    <path id="Path_2174" data-name="Path 2174" d="M681.28,266.16v4.283s2.87.308,6.557-4.283A37.664,37.664,0,0,1,681.28,266.16Z" transform="translate(-362.236 -136.661)" fill="#f7a48b"/>
    <rect id="Rectangle_2284" data-name="Rectangle 2284" width="19.291" height="30.547" rx="9.646" transform="translate(331.015 130.471) rotate(180)" fill="#f9b499"/>
    <path id="Path_2175" data-name="Path 2175" d="M672.691,197.913s-.561,4.536,5.846,8.138a6.828,6.828,0,0,1,2.2,5.8l2.741,3.559a8.664,8.664,0,0,1-1.225,4.711,19.931,19.931,0,0,0,1.225,6.793,6.422,6.422,0,0,1,.591,1.456h5.35a11.852,11.852,0,0,1,3.1.4,14.246,14.246,0,0,1,9.491,8.249,22.418,22.418,0,0,1,1.521,7.2v2.022h7.281s1.285-13.736-9.894-22.649a24.787,24.787,0,0,0-2.681-1.82c-1.581-.947-5.928-4.407-7.281-14.353,0,0-.458-14.991-12.078-14.828,0,0-15.565-1.371-14.657,12.764C664.185,205.361,667.076,199.176,672.691,197.913Z" transform="translate(-352.461 -94.588)" fill="#004068"/>
    <ellipse id="Ellipse_71" data-name="Ellipse 71" cx="2.81" cy="3.439" rx="2.81" ry="3.439" transform="translate(328.205 114.555)" fill="#f9b499"/>
    <rect id="Rectangle_2285" data-name="Rectangle 2285" width="187.778" height="6.168" transform="translate(377.65 192.406) rotate(180)" fill="#e6e6e6"/>
    <path id="Path_2176" data-name="Path 2176" d="M668.016,333.9l1.2,15.891s.531,8.228-7.054,11.072a12.67,12.67,0,0,1-4.587.767l-33.267-.407-15.7,1.812a.728.728,0,0,1-.814-.724h0a.728.728,0,0,1,.4-.655l1.923-.959a.18.18,0,0,0-.107-.338l-2.724.454A1.024,1.024,0,0,1,606.1,359.8h0a1.019,1.019,0,0,1,.784-.994l1.688-.428a.18.18,0,0,0-.039-.351h-3.7a1.161,1.161,0,0,1-1.161-1.165h0a1.161,1.161,0,0,1,.934-1.139l5.8-1.152a.176.176,0,0,0,0-.351l-4.977-.394a1.246,1.246,0,0,1-1.148-1.2h0a1.251,1.251,0,0,1,1.109-1.285l7.71-.857a.193.193,0,0,0,0-.36l-2.321-1.036a1.388,1.388,0,0,1-.707-1.82h0a1.383,1.383,0,0,1,1.713-.758l10.781,3.709,30.338-3.007V336.213Z" transform="translate(-317.868 -175.387)" fill="#f9b499"/>
    <path id="Path_2177" data-name="Path 2177" d="M481.856,328.392h51.856l-9.2-35.122H472.81Z" transform="translate(-243.057 -152.16)" fill="#004068"/>
    <path id="Path_2178" data-name="Path 2178" d="M595.817,293.27H593.53l9.2,35.122h2.026Z" transform="translate(-312.071 -152.16)" fill="#004068"/>
    <path id="Path_2179" data-name="Path 2179" d="M595.817,293.27H593.53l9.2,35.122h2.026Z" transform="translate(-312.071 -152.16)" opacity="0.2"/>
    <path id="Path_2180" data-name="Path 2180" d="M535.21,358.1l-3.14,15.227h10.194a1.062,1.062,0,0,1,1.067,1.067h0a1.062,1.062,0,0,1-1.067,1.062H520.138A2.261,2.261,0,0,1,518,372.5l4.609-14.4Z" transform="translate(-268.828 -189.222)" fill="#004068"/>
    <path id="Path_2181" data-name="Path 2181" d="M554.128,358.1H555.8l-3.1,15.227H550.98Z" transform="translate(-287.746 -189.222)" fill="#004068"/>
    <path id="Path_2182" data-name="Path 2182" d="M554.128,358.1H555.8l-3.1,15.227H550.98Z" transform="translate(-287.746 -189.222)" opacity="0.2"/>
  </g>
</svg>
