<svg width="124" height="39" viewBox="0 0 124 39" fill="none" xmlns="http://www.w3.org/2000/svg">
<g id="Group 16243">
<g id="iproEDGE">
<path d="M50.1866 14.4908C49.77 14.4908 49.4211 14.3691 49.1396 14.1256C48.8695 13.8715 48.7344 13.5593 48.7344 13.1888C48.7344 12.8183 48.8695 12.5113 49.1396 12.2678C49.4211 12.0137 49.77 11.8867 50.1866 11.8867C50.6031 11.8867 50.9464 12.0137 51.2166 12.2678C51.498 12.5113 51.6388 12.8183 51.6388 13.1888C51.6388 13.5593 51.498 13.8715 51.2166 14.1256C50.9464 14.3691 50.6031 14.4908 50.1866 14.4908ZM51.3517 15.5388V24.3355H48.9877V15.5388H51.3517Z" fill="#F4F5FA"/>
<path d="M56.0514 16.8091C56.3553 16.4068 56.7719 16.0734 57.3009 15.8087C57.8413 15.5335 58.4548 15.3959 59.1415 15.3959C59.9408 15.3959 60.6612 15.5811 61.3029 15.9516C61.9558 16.3221 62.468 16.8514 62.8395 17.5395C63.2223 18.217 63.4137 19.0056 63.4137 19.9054C63.4137 20.8052 63.2223 21.6044 62.8395 22.303C62.468 22.9911 61.9558 23.5257 61.3029 23.9068C60.6612 24.2878 59.9408 24.4784 59.1415 24.4784C58.4548 24.4784 57.8469 24.3461 57.3178 24.0814C56.8 23.8168 56.3779 23.4833 56.0514 23.0811V28.5274H53.6874V15.5388H56.0514V16.8091ZM60.999 19.9054C60.999 19.3761 60.8808 18.9209 60.6444 18.5398C60.4192 18.1482 60.1153 17.8518 59.7325 17.6506C59.361 17.4495 58.9558 17.3489 58.5167 17.3489C58.089 17.3489 57.6837 17.4548 57.3009 17.6665C56.9295 17.8676 56.6255 18.164 56.3891 18.5557C56.164 18.9474 56.0514 19.4078 56.0514 19.9371C56.0514 20.4664 56.164 20.9269 56.3891 21.3186C56.6255 21.7102 56.9295 22.0119 57.3009 22.2236C57.6837 22.4248 58.089 22.5253 58.5167 22.5253C58.9558 22.5253 59.361 22.4195 59.7325 22.2078C60.1153 21.996 60.4192 21.6944 60.6444 21.3027C60.8808 20.911 60.999 20.4452 60.999 19.9054Z" fill="#F4F5FA"/>
<path d="M67.4956 16.9043C67.7995 16.4386 68.1935 16.0734 68.6776 15.8087C69.1729 15.5441 69.7358 15.4118 70.3662 15.4118V17.7459H69.7414C68.9984 17.7459 68.4355 17.91 68.0528 18.2381C67.6813 18.5663 67.4956 19.1379 67.4956 19.953V24.3355H65.1315V15.5388H67.4956V16.9043Z" fill="#F4F5FA"/>
<path d="M76.1124 24.4784C75.2118 24.4784 74.4013 24.2931 73.6808 23.9226C72.9604 23.5416 72.3919 23.007 71.9753 22.3189C71.5701 21.6308 71.3674 20.8369 71.3674 19.9371C71.3674 19.0373 71.5757 18.2434 71.9922 17.5554C72.42 16.8673 72.9998 16.338 73.7315 15.9675C74.4632 15.5864 75.2794 15.3959 76.1799 15.3959C77.0805 15.3959 77.8967 15.5864 78.6284 15.9675C79.3601 16.338 79.9342 16.8673 80.3508 17.5554C80.7785 18.2434 80.9924 19.0373 80.9924 19.9371C80.9924 20.8369 80.7729 21.6308 80.3339 22.3189C79.9061 23.007 79.3207 23.5416 78.5777 23.9226C77.846 24.2931 77.0242 24.4784 76.1124 24.4784ZM76.1124 22.5412C76.5402 22.5412 76.9398 22.4459 77.3113 22.2554C77.694 22.0543 77.998 21.7579 78.2231 21.3662C78.4483 20.9745 78.5609 20.4982 78.5609 19.9371C78.5609 19.1009 78.3244 18.4604 77.8516 18.0158C77.3901 17.5606 76.8216 17.3331 76.1462 17.3331C75.4707 17.3331 74.9022 17.5606 74.4407 18.0158C73.9904 18.4604 73.7652 19.1009 73.7652 19.9371C73.7652 20.7734 73.9848 21.4191 74.4238 21.8743C74.8741 22.3189 75.437 22.5412 76.1124 22.5412Z" fill="#F4F5FA"/>
<path d="M85.0906 15.0465V17.8253H89.0588V19.5878H85.0906V22.5253H89.5653V24.3355H82.7265V13.2364H89.5653V15.0465H85.0906Z" fill="#00A2B8"/>
<path d="M95.8338 13.2523C97.0721 13.2523 98.1585 13.4799 99.0928 13.935C100.038 14.3902 100.765 15.0413 101.271 15.8881C101.789 16.7244 102.048 17.6983 102.048 18.8098C102.048 19.9213 101.789 20.8951 101.271 21.7314C100.765 22.5571 100.038 23.1975 99.0928 23.6527C98.1585 24.1079 97.0721 24.3355 95.8338 24.3355H91.7137V13.2523H95.8338ZM95.7494 22.4459C96.9877 22.4459 97.9446 22.1284 98.62 21.4932C99.2954 20.8581 99.6332 19.9636 99.6332 18.8098C99.6332 17.6559 99.2954 16.7561 98.62 16.1104C97.9446 15.4541 96.9877 15.1259 95.7494 15.1259H94.0777V22.4459H95.7494Z" fill="#00A2B8"/>
<path d="M112.024 16.5868C111.754 16.121 111.382 15.7664 110.91 15.5229C110.437 15.2794 109.885 15.1577 109.255 15.1577C108.557 15.1577 107.938 15.3059 107.397 15.6023C106.857 15.8987 106.435 16.3221 106.131 16.8726C105.827 17.423 105.675 18.0582 105.675 18.778C105.675 19.519 105.827 20.1647 106.131 20.7152C106.446 21.2656 106.879 21.6891 107.431 21.9855C107.983 22.2819 108.624 22.4301 109.356 22.4301C110.257 22.4301 110.994 22.2078 111.568 21.7632C112.142 21.308 112.519 20.6781 112.699 19.8736H108.647V18.1746H115.03V20.1118C114.872 20.8846 114.534 21.5991 114.017 22.2554C113.499 22.9117 112.829 23.441 112.007 23.8432C111.197 24.2349 110.285 24.4308 109.272 24.4308C108.135 24.4308 107.105 24.1926 106.181 23.7162C105.27 23.2293 104.549 22.5571 104.02 21.6996C103.502 20.8422 103.243 19.8683 103.243 18.778C103.243 17.6877 103.502 16.7138 104.02 15.8564C104.549 14.9883 105.27 14.3161 106.181 13.8398C107.105 13.3528 108.129 13.1094 109.255 13.1094C110.583 13.1094 111.737 13.4163 112.716 14.0303C113.696 14.6337 114.371 15.4859 114.743 16.5868H112.024Z" fill="#00A2B8"/>
<path d="M119.143 15.0465V17.8253H123.111V19.5878H119.143V22.5253H123.618V24.3355H116.779V13.2364H123.618V15.0465H119.143Z" fill="#00A2B8"/>
</g>
<g id="Group 16176">
<path id="Path 1954" d="M19.5 0C36.3808 0 39 2.61924 39 19.5C39 36.3808 36.3808 39 19.5 39C2.61924 39 0 36.3808 0 19.5C0 2.61924 2.61924 0 19.5 0Z" fill="#F4F5FA"/>
<g id="Group 16175">
<g id="Group 16142">
<path id="Path 32" d="M11.3889 16.6333C11.5982 16.9096 11.8647 17.1375 12.1702 17.3014C12.4756 17.4653 12.8128 17.5614 13.1588 17.583C13.4717 17.5914 13.7806 17.5108 14.0494 17.3505C14.3183 17.1901 14.5361 16.9567 14.6774 16.6774C14.9151 16.093 15.0195 15.4629 14.9832 14.8331C15.0101 14.1182 14.8951 13.405 14.6447 12.7349C14.526 12.487 14.3379 12.2788 14.1032 12.1357C13.8685 11.9927 13.5973 11.9207 13.3226 11.9288C12.9447 11.9408 12.5746 12.0397 12.2411 12.2179C11.9076 12.396 11.6196 12.6486 11.3995 12.956V16.6337L11.3889 16.6333ZM10.0996 11.0672L11.2579 10.8574C11.3226 11.2255 11.3488 11.5993 11.3359 11.9728C11.5892 11.6477 11.9117 11.3829 12.2799 11.1976C12.6481 11.0123 13.0528 10.9112 13.4649 10.9015C13.8331 10.8974 14.1973 10.9767 14.5304 11.1335C14.8635 11.2904 15.1567 11.5207 15.388 11.8071C15.9235 12.4818 16.1836 13.3753 16.1836 14.6786C16.2443 15.5569 16.0427 16.4334 15.6045 17.1969C15.3857 17.598 15.0638 17.9334 14.6719 18.1683C14.28 18.4032 13.8325 18.5291 13.3756 18.533C13.0043 18.5298 12.6374 18.4531 12.296 18.3071C11.9545 18.1612 11.6455 17.949 11.3866 17.6828V22.3652L10.2634 22.5863V12.6354C10.2889 12.1074 10.2337 11.5786 10.0996 11.0672Z" fill="#3C3D3E"/>
<path id="Path 33" d="M17.0215 11.1666L18.147 10.8574C18.3123 11.2287 18.3907 11.6329 18.3763 12.0391C18.5949 11.6903 18.8931 11.3984 19.2464 11.1872C19.5996 10.976 19.998 10.8516 20.4086 10.8242C20.543 10.8302 20.6757 10.8565 20.8021 10.9022L20.3431 12.1502C20.2417 12.113 20.1345 12.0942 20.0264 12.0948C19.8007 12.0977 19.5779 12.1462 19.3714 12.2373C19.1648 12.3283 18.9788 12.4602 18.8245 12.6248C18.6645 12.7685 18.5428 12.9497 18.4703 13.1521C18.3978 13.3545 18.3768 13.5718 18.4091 13.7843V18.3563H17.2726V12.7239C17.3023 12.1928 17.2167 11.6615 17.0215 11.1666Z" fill="#3C3D3E"/>
<path id="Path 34" d="M7.39941 11.0763L8.57955 10.8887V18.3431H7.39941V11.0763Z" fill="#3C3D3E"/>
<path id="Path 36" d="M8.01156 7.99611C8.11722 7.99542 8.22194 8.01586 8.31958 8.05624C8.41722 8.09661 8.5058 8.1561 8.58011 8.23121C8.65442 8.30632 8.71296 8.39553 8.75228 8.4936C8.79161 8.59166 8.81094 8.6966 8.80911 8.80224C8.80983 8.90698 8.78991 9.01083 8.75049 9.10787C8.71107 9.2049 8.65293 9.29323 8.57937 9.36779C8.50582 9.44236 8.4183 9.50171 8.32182 9.54245C8.22533 9.58319 8.12176 9.60453 8.01702 9.60525C7.91229 9.60597 7.80843 9.58605 7.7114 9.54663C7.61436 9.50721 7.52603 9.44907 7.45147 9.37551C7.3769 9.30196 7.31755 9.21444 7.27681 9.11795C7.23607 9.02147 7.21473 8.9179 7.21401 8.81316C7.212 8.70695 7.2311 8.60139 7.27023 8.50263C7.30935 8.40387 7.36771 8.31386 7.44191 8.23784C7.51612 8.16182 7.60469 8.10131 7.70248 8.05981C7.80027 8.01831 7.90533 7.99666 8.01156 7.99611Z" fill="#5D7B9A"/>
<path id="Path 40" d="M23.626 11.7727C23.3312 11.7599 23.0385 11.827 22.7789 11.967C22.5192 12.107 22.3022 12.3146 22.151 12.5679C21.8853 13.1645 21.765 13.8155 21.8 14.4676C21.7591 15.2868 21.9131 16.1039 22.2493 16.8521C22.4125 17.0867 22.6322 17.2764 22.888 17.4038C23.1439 17.5312 23.4277 17.5921 23.7133 17.581C24.0577 17.5965 24.3975 17.4979 24.68 17.3004C24.9625 17.103 25.1719 16.8177 25.2757 16.489C25.4429 15.9761 25.5168 15.4375 25.4941 14.8986C25.5452 14.15 25.4296 13.3994 25.1555 12.7009C25.0166 12.4157 24.7985 12.1765 24.5272 12.0119C24.256 11.8473 23.9431 11.7643 23.626 11.7727ZM23.6369 10.834C24.1244 10.816 24.6084 10.9233 25.0427 11.1457C25.477 11.3681 25.8469 11.6981 26.1173 12.1042C26.6102 12.9171 26.8428 13.8612 26.7838 14.81C26.7838 17.2397 25.4944 18.5318 23.6806 18.5318C21.6916 18.5318 20.5664 17.0517 20.5664 14.6552C20.5668 12.2805 21.7465 10.834 23.6369 10.834Z" fill="#3C3D3E"/>
</g>
<g id="Group 16174">
<g id="Group 16143">
<path id="Path 1951" d="M12.4404 20.0879H31.7041V27.6149L28.3477 31.1736H12.4404V20.0879Z" fill="#00A2B8"/>
</g>
<path id="Path 2183" d="M17.9629 23.4726C17.9632 23.4847 17.961 23.4966 17.9564 23.5078C17.9518 23.5189 17.945 23.529 17.9364 23.5374C17.928 23.546 17.9179 23.5528 17.9068 23.5574C17.8957 23.5619 17.8837 23.5642 17.8717 23.5639H16.284C16.2787 23.5629 16.2732 23.5633 16.268 23.5649C16.2628 23.5665 16.2581 23.5694 16.2543 23.5732C16.2504 23.577 16.2476 23.5817 16.246 23.5869C16.2444 23.5921 16.244 23.5976 16.245 23.6029V24.8033C16.244 24.8087 16.2444 24.8142 16.246 24.8193C16.2476 24.8245 16.2504 24.8292 16.2543 24.833C16.2581 24.8369 16.2628 24.8397 16.268 24.8413C16.2732 24.843 16.2787 24.8433 16.284 24.8423H17.1954C17.2074 24.8421 17.2194 24.8443 17.2305 24.8489C17.2417 24.8534 17.2518 24.8602 17.2602 24.8688C17.2688 24.8772 17.2756 24.8873 17.2801 24.8985C17.2847 24.9096 17.2869 24.9216 17.2867 24.9336V25.6703C17.2869 25.6823 17.2847 25.6943 17.2801 25.7054C17.2756 25.7166 17.2688 25.7266 17.2602 25.735C17.2518 25.7437 17.2417 25.7505 17.2305 25.755C17.2194 25.7596 17.2074 25.7618 17.1954 25.7616H16.284C16.2787 25.7606 16.2732 25.7609 16.268 25.7625C16.2628 25.7642 16.2581 25.767 16.2543 25.7708C16.2504 25.7747 16.2476 25.7794 16.246 25.7846C16.2444 25.7897 16.244 25.7952 16.245 25.8006V27.0096C16.244 27.0149 16.2444 27.0204 16.246 27.0256C16.2476 27.0307 16.2504 27.0354 16.2543 27.0393C16.2581 27.0431 16.2628 27.046 16.268 27.0476C16.2732 27.0492 16.2787 27.0495 16.284 27.0486H17.8717C17.8837 27.0483 17.8957 27.0505 17.9068 27.0551C17.9179 27.0597 17.928 27.0665 17.9364 27.0751C17.945 27.0835 17.9518 27.0936 17.9564 27.1047C17.961 27.1158 17.9632 27.1278 17.9629 27.1398V27.8765C17.9632 27.8886 17.961 27.9005 17.9564 27.9117C17.9518 27.9228 17.945 27.9329 17.9364 27.9413C17.928 27.9499 17.9179 27.9567 17.9068 27.9613C17.8957 27.9658 17.8837 27.968 17.8717 27.9678H15.2661C15.2541 27.968 15.2421 27.9658 15.231 27.9613C15.2198 27.9567 15.2097 27.9499 15.2013 27.9413C15.1927 27.9329 15.1859 27.9228 15.1814 27.9117C15.1768 27.9005 15.1746 27.8886 15.1748 27.8765V22.7359C15.1746 22.7239 15.1768 22.7119 15.1814 22.7008C15.1859 22.6897 15.1927 22.6796 15.2013 22.6712C15.2097 22.6626 15.2198 22.6558 15.231 22.6512C15.2421 22.6466 15.2541 22.6444 15.2661 22.6447H17.8717C17.8837 22.6444 17.8957 22.6466 17.9068 22.6512C17.9179 22.6558 17.928 22.6626 17.9364 22.6712C17.945 22.6796 17.9518 22.6897 17.9564 22.7008C17.961 22.7119 17.9632 22.7239 17.9629 22.7359V23.4726ZM18.5936 27.9623C18.5815 27.9626 18.5696 27.9604 18.5584 27.9558C18.5473 27.9512 18.5372 27.9444 18.5288 27.9358C18.5202 27.9274 18.5134 27.9173 18.5088 27.9062C18.5043 27.8951 18.5021 27.8831 18.5023 27.8711V22.7359C18.5021 22.7239 18.5043 22.7119 18.5088 22.7008C18.5134 22.6897 18.5202 22.6796 18.5288 22.6712C18.5372 22.6626 18.5473 22.6558 18.5584 22.6512C18.5696 22.6466 18.5815 22.6444 18.5936 22.6447H19.9671C20.1695 22.6351 20.3717 22.6657 20.5621 22.7348C20.7524 22.8039 20.9272 22.91 21.0763 23.0472C21.2168 23.1866 21.3265 23.354 21.3985 23.5384C21.4704 23.7229 21.5029 23.9203 21.494 24.1181V26.4881C21.5029 26.6859 21.4704 26.8834 21.3985 27.0678C21.3265 27.2522 21.2168 27.4196 21.0763 27.5591C20.9273 27.6963 20.7525 27.8025 20.5621 27.8717C20.3717 27.9408 20.1695 27.9715 19.9671 27.9619L18.5936 27.9623ZM19.5736 27.0053C19.5727 27.0106 19.573 27.0161 19.5746 27.0213C19.5762 27.0264 19.5791 27.0312 19.5829 27.035C19.5868 27.0388 19.5915 27.0417 19.5966 27.0433C19.6018 27.0449 19.6073 27.0452 19.6126 27.0443L19.9547 27.0369C20.0201 27.0354 20.0843 27.0189 20.1422 26.9886C20.2002 26.9583 20.2504 26.915 20.2889 26.8621C20.3806 26.7337 20.4286 26.5792 20.4258 26.4214V24.1867C20.4348 24.0246 20.3894 23.8641 20.2967 23.7308C20.2561 23.6766 20.2029 23.6331 20.1418 23.6039C20.0807 23.5748 20.0134 23.5609 19.9457 23.5635H19.6115C19.6061 23.5625 19.6006 23.5629 19.5955 23.5645C19.5903 23.5661 19.5856 23.569 19.5817 23.5728C19.5779 23.5766 19.5751 23.5813 19.5734 23.5865C19.5718 23.5917 19.5715 23.5972 19.5725 23.6025L19.5736 27.0053ZM23.5544 28.0232C23.1513 28.0427 22.7569 27.9026 22.4565 27.6332C22.3175 27.4983 22.2088 27.3354 22.1374 27.1554C22.066 26.9754 22.0336 26.7822 22.0423 26.5887V24.021C22.0331 23.8271 22.0653 23.6334 22.1366 23.4529C22.208 23.2724 22.3169 23.1091 22.4561 22.9738C22.7565 22.7044 23.151 22.5643 23.554 22.5838C23.9588 22.5652 24.3546 22.7072 24.6553 22.9789C24.7951 23.1141 24.9046 23.2774 24.9766 23.4581C25.0486 23.6387 25.0815 23.8326 25.073 24.0268V24.3154C25.0733 24.3275 25.0711 24.3394 25.0665 24.3506C25.0619 24.3617 25.0551 24.3718 25.0465 24.3802C25.0381 24.3888 25.028 24.3956 25.0169 24.4002C25.0058 24.4047 24.9938 24.407 24.9818 24.4067H24.0933C24.0813 24.407 24.0694 24.4047 24.0582 24.4002C24.0471 24.3956 24.037 24.3888 24.0286 24.3802C24.02 24.3718 24.0132 24.3617 24.0086 24.3506C24.0041 24.3394 24.0018 24.3275 24.0021 24.3154V24.0116C24.0083 23.878 23.965 23.7468 23.8804 23.6431C23.84 23.5966 23.7896 23.5599 23.733 23.5356C23.6764 23.5113 23.6151 23.5 23.5536 23.5027C23.4933 23.5006 23.4333 23.5121 23.378 23.5364C23.3228 23.5607 23.2738 23.5972 23.2346 23.6431C23.15 23.7468 23.1067 23.878 23.1129 24.0116V26.5946C23.1067 26.7282 23.15 26.8595 23.2346 26.9631C23.2738 27.009 23.3228 27.0455 23.378 27.0698C23.4333 27.0941 23.4933 27.1056 23.5536 27.1035C23.6151 27.1062 23.6764 27.095 23.733 27.0706C23.7896 27.0463 23.84 27.0096 23.8804 26.9631C23.965 26.8595 24.0083 26.7282 24.0021 26.5946V25.987C24.0031 25.9816 24.0027 25.9762 24.0011 25.971C23.9995 25.9658 23.9966 25.9611 23.9928 25.9573C23.989 25.9534 23.9843 25.9506 23.9791 25.949C23.9739 25.9473 23.9684 25.947 23.9631 25.948H23.6289C23.6168 25.9482 23.6049 25.946 23.5937 25.9414C23.5826 25.9369 23.5725 25.9301 23.5641 25.9215C23.5555 25.9131 23.5487 25.903 23.5441 25.8918C23.5396 25.8807 23.5373 25.8688 23.5376 25.8567V25.1805C23.5379 25.1689 23.5405 25.1575 23.5453 25.1469C23.55 25.1363 23.5568 25.1268 23.5653 25.1188C23.5737 25.1102 23.5838 25.1034 23.5949 25.0988C23.606 25.0943 23.618 25.0921 23.63 25.0923H24.9822C24.9942 25.0921 25.0061 25.0943 25.0173 25.0988C25.0284 25.1034 25.0385 25.1102 25.0469 25.1188C25.0555 25.1272 25.0623 25.1373 25.0669 25.1484C25.0715 25.1596 25.0737 25.1715 25.0734 25.1836V26.5876C25.0821 26.7814 25.0494 26.9748 24.9774 27.1549C24.9053 27.335 24.7957 27.4977 24.6557 27.632C24.3541 27.9011 23.959 28.0414 23.5551 28.0228L23.5544 28.0232ZM28.4535 23.4726C28.4538 23.4847 28.4516 23.4966 28.447 23.5078C28.4425 23.5189 28.4356 23.529 28.427 23.5374C28.4186 23.546 28.4086 23.5528 28.3974 23.5574C28.3863 23.5619 28.3743 23.5642 28.3623 23.5639H26.7746C26.7693 23.5629 26.7638 23.5633 26.7586 23.5649C26.7534 23.5665 26.7487 23.5694 26.7449 23.5732C26.741 23.577 26.7382 23.5817 26.7366 23.5869C26.735 23.5921 26.7346 23.5976 26.7356 23.6029V24.8033C26.7346 24.8087 26.735 24.8142 26.7366 24.8193C26.7382 24.8245 26.741 24.8292 26.7449 24.833C26.7487 24.8369 26.7534 24.8397 26.7586 24.8413C26.7638 24.843 26.7693 24.8433 26.7746 24.8423H27.686C27.6981 24.8421 27.71 24.8443 27.7212 24.8489C27.7323 24.8534 27.7424 24.8602 27.7508 24.8688C27.7594 24.8772 27.7662 24.8873 27.7708 24.8985C27.7753 24.9096 27.7775 24.9216 27.7773 24.9336V25.6703C27.7775 25.6823 27.7753 25.6943 27.7708 25.7054C27.7662 25.7166 27.7594 25.7266 27.7508 25.735C27.7424 25.7437 27.7323 25.7505 27.7212 25.755C27.71 25.7596 27.6981 25.7618 27.686 25.7616H26.7746C26.7693 25.7606 26.7638 25.7609 26.7586 25.7625C26.7534 25.7642 26.7487 25.767 26.7449 25.7708C26.741 25.7747 26.7382 25.7794 26.7366 25.7846C26.735 25.7897 26.7346 25.7952 26.7356 25.8006V27.0096C26.7346 27.0149 26.735 27.0204 26.7366 27.0256C26.7382 27.0307 26.741 27.0354 26.7449 27.0393C26.7487 27.0431 26.7534 27.046 26.7586 27.0476C26.7638 27.0492 26.7693 27.0495 26.7746 27.0486H28.3623C28.3743 27.0483 28.3863 27.0505 28.3974 27.0551C28.4086 27.0597 28.4186 27.0665 28.427 27.0751C28.4356 27.0835 28.4425 27.0936 28.447 27.1047C28.4516 27.1158 28.4538 27.1278 28.4535 27.1398V27.8765C28.4538 27.8886 28.4516 27.9005 28.447 27.9117C28.4425 27.9228 28.4356 27.9329 28.427 27.9413C28.4186 27.9499 28.4086 27.9567 28.3974 27.9613C28.3863 27.9658 28.3743 27.968 28.3623 27.9678H25.7567C25.7447 27.968 25.7327 27.9658 25.7216 27.9613C25.7104 27.9567 25.7004 27.9499 25.692 27.9413C25.6833 27.9329 25.6765 27.9228 25.672 27.9117C25.6674 27.9005 25.6652 27.8886 25.6654 27.8765V22.7359C25.6652 22.7239 25.6674 22.7119 25.672 22.7008C25.6765 22.6897 25.6833 22.6796 25.692 22.6712C25.7004 22.6626 25.7104 22.6558 25.7216 22.6512C25.7327 22.6466 25.7447 22.6444 25.7567 22.6447H28.3623C28.3743 22.6444 28.3863 22.6466 28.3974 22.6512C28.4086 22.6558 28.4186 22.6626 28.427 22.6712C28.4356 22.6796 28.4425 22.6897 28.447 22.7008C28.4516 22.7119 28.4538 22.7239 28.4535 22.7359V23.4726Z" fill="white"/>
</g>
</g>
</g>
</g>
</svg>
