<svg width="58" height="74" viewBox="0 0 58 74" fill="none" xmlns="http://www.w3.org/2000/svg">
<g id="Group 16245">
<path id="Rectangle 2437" d="M0 0H38C49.0457 0 58 8.9543 58 20V54C58 65.0457 49.0457 74 38 74H0V0Z" fill="#1B2225"/>
<path id="Vector" d="M41 36.5C41 37.0246 40.7864 37.5277 40.4063 37.8987C40.0261 38.2696 39.5105 38.478 38.9728 38.478H22.9176L28.2423 43.6736C28.6004 44.0485 28.7954 44.5445 28.7861 45.0569C28.7768 45.5693 28.5641 46.0583 28.1927 46.4207C27.8212 46.7831 27.3202 46.9907 26.795 46.9997C26.2698 47.0087 25.7615 46.8185 25.3773 46.4691L16.5929 37.8978C16.2132 37.5269 16 37.0242 16 36.5C16 35.9758 16.2132 35.4731 16.5929 35.1022L25.3773 26.5309C25.7615 26.1815 26.2698 25.9913 26.795 26.0003C27.3202 26.0093 27.8212 26.2169 28.1927 26.5793C28.5641 26.9417 28.7768 27.4307 28.7861 27.9431C28.7954 28.4555 28.6004 28.9515 28.2423 29.3264L22.9176 34.522H38.9728C39.5105 34.522 40.0261 34.7304 40.4063 35.1013C40.7864 35.4723 41 35.9754 41 36.5Z" fill="white"/>
</g>
</svg>
