<svg width="58" height="74" viewBox="0 0 58 74" fill="none" xmlns="http://www.w3.org/2000/svg">
<g id="Group 16244">
<path id="Rectangle 2436" d="M0 20C0 8.95431 8.95431 0 20 0H58V74H20C8.95431 74 0 65.0457 0 54V20Z" fill="#44423C"/>
<path id="Vector" d="M16 36.5C16 35.9754 16.2136 35.4723 16.5937 35.1013C16.9739 34.7304 17.4895 34.522 18.0272 34.522L34.0824 34.522L28.7577 29.3264C28.3996 28.9515 28.2046 28.4555 28.2139 27.9431C28.2232 27.4307 28.4359 26.9417 28.8073 26.5793C29.1788 26.2169 29.6798 26.0093 30.205 26.0003C30.7302 25.9913 31.2385 26.1815 31.6227 26.5309L40.4071 35.1022C40.7868 35.4731 41 35.9758 41 36.5C41 37.0242 40.7868 37.5269 40.4071 37.8978L31.6227 46.4691C31.2385 46.8185 30.7302 47.0087 30.205 46.9997C29.6798 46.9907 29.1788 46.7831 28.8073 46.4207C28.4359 46.0583 28.2232 45.5693 28.2139 45.0569C28.2046 44.5445 28.3996 44.0485 28.7577 43.6736L34.0824 38.478L18.0272 38.478C17.4895 38.478 16.9739 38.2696 16.5937 37.8987C16.2136 37.5277 16 37.0246 16 36.5Z" fill="white"/>
</g>
</svg>
