<svg width="28" height="23" viewBox="0 0 28 23" fill="none" xmlns="http://www.w3.org/2000/svg">
<g id="&#240;&#159;&#166;&#134; icon &#34;User Lock&#34;">
<path id="Vector" d="M9.74693 11.1393C10.8485 11.1393 11.9253 10.8127 12.8413 10.2007C13.7572 9.58869 14.4711 8.71882 14.8926 7.7011C15.3142 6.68337 15.4245 5.5635 15.2096 4.48309C14.9947 3.40268 14.4642 2.41025 13.6853 1.63132C12.9063 0.852389 11.9139 0.321929 10.8335 0.107022C9.7531 -0.107885 8.63323 0.00241323 7.6155 0.423969C6.59778 0.845524 5.72792 1.5594 5.11591 2.47533C4.50391 3.39126 4.17725 4.4681 4.17725 5.56967C4.17725 7.04684 4.76406 8.46351 5.80857 9.50803C6.85309 10.5525 8.26976 11.1393 9.74693 11.1393ZM13.9242 13.9242C13.9273 13.4591 14.0486 13.0024 14.2766 12.597C14.0678 12.5753 13.8633 12.5318 13.6457 12.5318H12.919C11.9244 12.9904 10.8422 13.228 9.74693 13.228C8.65166 13.228 7.56942 12.9904 6.57482 12.5318H5.84816C4.29723 12.5321 2.80993 13.1484 1.71327 14.245C0.6166 15.3417 0.000346072 16.829 0 18.3799L0 20.1901C0 20.744 0.220051 21.2753 0.611745 21.6669C1.00344 22.0586 1.53469 22.2787 2.08863 22.2787H14.3114C14.0612 21.8571 13.9275 21.3765 13.9242 20.8863V13.9242ZM26.4559 12.5318H25.0635V9.05072C25.0635 8.12749 24.6968 7.24207 24.0439 6.58925C23.3911 5.93643 22.5057 5.56967 21.5825 5.56967C20.6592 5.56967 19.7738 5.93643 19.121 6.58925C18.4682 7.24207 18.1014 8.12749 18.1014 9.05072V12.5318H16.709C16.3397 12.5318 15.9856 12.6785 15.7244 12.9396C15.4633 13.2007 15.3166 13.5549 15.3166 13.9242V20.8863C15.3166 21.2556 15.4633 21.6097 15.7244 21.8709C15.9856 22.132 16.3397 22.2787 16.709 22.2787H26.4559C26.8252 22.2787 27.1794 22.132 27.4405 21.8709C27.7017 21.6097 27.8484 21.2556 27.8484 20.8863V13.9242C27.8484 13.5549 27.7017 13.2007 27.4405 12.9396C27.1794 12.6785 26.8252 12.5318 26.4559 12.5318ZM21.5825 18.7976C21.3071 18.7976 21.0379 18.716 20.8089 18.563C20.5799 18.41 20.4014 18.1925 20.2961 17.9381C20.1907 17.6837 20.1631 17.4037 20.2168 17.1336C20.2705 16.8635 20.4032 16.6154 20.5979 16.4206C20.7926 16.2259 21.0407 16.0933 21.3108 16.0396C21.5809 15.9858 21.8609 16.0134 22.1153 16.1188C22.3698 16.2242 22.5872 16.4027 22.7402 16.6316C22.8932 16.8606 22.9749 17.1298 22.9749 17.4052C22.9749 17.7745 22.8282 18.1287 22.5671 18.3898C22.3059 18.6509 21.9518 18.7976 21.5825 18.7976ZM22.9749 12.5318H20.1901V9.05072C20.1901 8.68143 20.3368 8.32726 20.5979 8.06613C20.859 7.805 21.2132 7.6583 21.5825 7.6583C21.9518 7.6583 22.3059 7.805 22.5671 8.06613C22.8282 8.32726 22.9749 8.68143 22.9749 9.05072V12.5318Z" fill="#20272A"/>
</g>
</svg>
