<svg width="31" height="23" viewBox="0 0 31 23" fill="none" xmlns="http://www.w3.org/2000/svg">
<g id="&#240;&#159;&#166;&#134; icon &#34;Envelope&#34;">
<path id="Vector" d="M30.0857 7.59479C30.3193 7.40911 30.6667 7.58281 30.6667 7.8763V20.125C30.6667 21.7122 29.3789 23 27.7917 23H2.875C1.28776 23 0 21.7122 0 20.125V7.88229C0 7.58281 0.341406 7.4151 0.58099 7.60078C1.92266 8.64297 3.70156 9.96667 9.81094 14.4049C11.0747 15.3273 13.207 17.268 15.3333 17.256C17.4716 17.274 19.6458 15.2914 20.8617 14.4049C26.9711 9.96667 28.744 8.63698 30.0857 7.59479ZM15.3333 15.3333C16.7229 15.3573 18.7234 13.5844 19.7297 12.8536C27.6779 7.08568 28.2828 6.58255 30.1156 5.14505C30.463 4.87552 30.6667 4.45625 30.6667 4.01302V2.875C30.6667 1.28776 29.3789 0 27.7917 0H2.875C1.28776 0 0 1.28776 0 2.875V4.01302C0 4.45625 0.203646 4.86953 0.551042 5.14505C2.38385 6.57656 2.9888 7.08568 10.937 12.8536C11.9432 13.5844 13.9437 15.3573 15.3333 15.3333Z" fill="#20272A"/>
</g>
</svg>
